<svg xmlns="http://www.w3.org/2000/svg" width="64" height="64" viewBox="0 0 64 64">
    <g fill="none">
        <circle cx="32" cy="32" r="32" fill="#E9EFF6"/>
        <path fill="#366ED8" d="M17.087.017C7.857.214.301 7.688.01 16.917c-.145 4.584 1.478 8.788 4.237 11.982 1.243 1.438 1.598 3.442.958 5.232L4.055 37.35c-.374 1.047.839 1.942 1.729 1.276l4.076-3.049c1.213-.907 2.753-1.244 4.239-.951 1.547.304 3.167.405 4.834.267 8.767-.725 15.68-7.976 15.996-16.767C35.29 8.055 27.125-.198 17.087.017z"/>
        <path fill="#FFF" d="M56.852 44.972c-1.479 1.785-1.948 4.196-1.17 6.377l.553 1.548c-.697.808-1.435 1.581-2.21 2.317l-3.432-2.564c-1.449-1.08-3.28-1.509-5.056-1.178-1.146.214-2.428.403-3.36.403-10.52 0-19.048-8.527-19.048-19.048-.001-10.51 8.537-19.048 19.048-19.048 10.52 0 19.049 8.527 19.049 19.048 0 4.616-1.643 8.849-4.374 12.145z"/>
        <g>
            <path fill="#4DE6C1" d="M33.157 33.942c0 1.189-1.021 2.232-2.218 2.232-1.284 0-2.247-1.043-2.247-2.232 0-1.218.963-2.233 2.247-2.233 1.197 0 2.218 1.015 2.218 2.233zm-.431-5.059c0 .943-1.047 1.338-1.786 1.338-.986 0-1.817-.395-1.817-1.338 0-3.618-.431-8.817-.431-12.435 0-1.186.985-1.855 2.248-1.855 1.2 0 2.217.669 2.217 1.855 0 3.618-.431 8.817-.431 12.435z" transform="translate(11.494 7.733)"/>
            <path fill="#FFF" d="M7.985 9.523c-1.397 1.12-1.423 1.902-1.423 3.257 0 .496-.254 1.069-1.5 1.069-1.04 0-1.397-.391-1.397-1.746 0-2.241.966-3.31 1.703-3.961.839-.73 2.262-1.538 2.262-2.945 0-1.2-1.017-1.773-2.287-1.773-2.592 0-2.033 2.007-3.406 2.007-.686 0-1.524-.469-1.524-1.485C.413 2.538 1.988.453 5.419.453c3.253 0 5.412 1.85 5.412 4.3 0 2.45-2.16 4.223-2.846 4.77zm-.875 7.675c0 .99-.827 1.86-1.872 1.86-1.046 0-1.848-.87-1.848-1.86 0-1.015.827-1.86 1.848-1.86 1.021 0 1.872.845 1.872 1.86z" transform="translate(11.494 7.733)"/>
        </g>
    </g>
</svg>
